<svg width="80" height="38" viewBox="0 0 80 38" fill="none" xmlns="http://www.w3.org/2000/svg">
<g clip-path="url(#clip0_223_215)">
<g clip-path="url(#clip1_223_215)">
<g clip-path="url(#clip2_223_215)">
<path d="M0.30957 1.70288C0.30957 0.760862 1.15784 -4.11768e-08 2.20807 0C3.25831 4.1177e-08 4.10656 0.760862 4.10656 1.70288C4.10656 2.6449 3.25831 3.40576 2.20807 3.40576C1.15784 3.40576 0.30957 2.6449 0.30957 1.70288Z" fill="#AD0000"/>
<path d="M7.89551 1.70288C7.89551 2.64336 8.7455 3.40576 9.79404 3.40576C10.8425 3.40576 11.6925 2.64336 11.6925 1.70288C11.6925 0.762406 10.8425 4.11096e-08 9.79404 0C8.7455 -4.11098e-08 7.89551 0.762406 7.89551 1.70288Z" fill="#AD0000"/>
<path d="M15.4893 1.70288C15.4893 0.760862 16.3375 -4.11768e-08 17.3878 0C18.438 4.1177e-08 19.2863 0.760862 19.2863 1.70288C19.2863 2.6449 18.438 3.40576 17.3878 3.40576C16.3375 3.40576 15.4893 2.6449 15.4893 1.70288Z" fill="#AD0000"/>
<path d="M61.0215 1.70288C61.0215 0.760862 61.8698 -4.11768e-08 62.92 0C63.9702 4.1177e-08 64.8185 0.760862 64.8185 1.70288C64.8185 2.6449 63.9702 3.40576 62.92 3.40576C61.8698 3.40576 61.0215 2.6449 61.0215 1.70288Z" fill="#AD0000"/>
<path d="M68.6074 1.70288C68.6074 0.760862 69.4557 -4.11768e-08 70.5059 0C71.5562 4.1177e-08 72.4044 0.760862 72.4044 1.70288C72.4044 2.6449 71.5562 3.40576 70.5059 3.40576C69.4557 3.40576 68.6074 2.6449 68.6074 1.70288Z" fill="#AD0000"/>
<path d="M76.1934 1.70288C76.1934 0.760862 77.0416 -4.11768e-08 78.0919 0C79.1421 4.1177e-08 79.9904 0.760862 79.9904 1.70288C79.9904 2.6449 79.1421 3.40576 78.0919 3.40576C77.0416 3.40576 76.1934 2.6449 76.1934 1.70288Z" fill="#AD0000"/>
<path d="M4.10645 5.10816C4.10645 4.16614 4.95471 3.40527 6.00495 3.40527C7.05518 3.40527 7.90344 4.16614 7.90344 5.10816C7.90344 6.05017 7.05518 6.81104 6.00495 6.81104C4.95471 6.81104 4.10645 6.05017 4.10645 5.10816Z" fill="#AD0000"/>
<path d="M11.6924 5.10816C11.6924 4.16614 12.5406 3.40527 13.5909 3.40527C14.6411 3.40527 15.4894 4.16614 15.4894 5.10816C15.4894 6.05017 14.6411 6.81104 13.5909 6.81104C12.5406 6.81104 11.6924 6.05017 11.6924 5.10816Z" fill="#AD0000"/>
<path d="M19.2783 5.10816C19.2783 4.16614 20.1266 3.40527 21.1768 3.40527C22.2271 3.40527 23.0753 4.16614 23.0753 5.10816C23.0753 6.05017 22.2271 6.81104 21.1768 6.81104C20.1266 6.81104 19.2783 6.05017 19.2783 5.10816Z" fill="#AD0000"/>
<path d="M57.2246 5.10816C57.2246 6.04863 58.0746 6.81104 59.1231 6.81104C60.1716 6.81104 61.0216 6.04863 61.0216 5.10816C61.0216 4.16768 60.1716 3.40527 59.1231 3.40527C58.0746 3.40527 57.2246 4.16768 57.2246 5.10816Z" fill="#AD0000"/>
<path d="M64.8105 5.10816C64.8105 6.04863 65.6605 6.81104 66.709 6.81104C67.7576 6.81104 68.6075 6.04863 68.6075 5.10816C68.6075 4.16768 67.7576 3.40527 66.709 3.40527C65.6605 3.40527 64.8105 4.16768 64.8105 5.10816Z" fill="#AD0000"/>
<path d="M72.4043 5.10816C72.4043 4.16614 73.2526 3.40527 74.3028 3.40527C75.353 3.40527 76.2013 4.16614 76.2013 5.10816C76.2013 6.05017 75.353 6.81104 74.3028 6.81104C73.2526 6.81104 72.4043 6.05017 72.4043 5.10816Z" fill="#AD0000"/>
<path d="M7.89551 8.50759C7.89551 7.56555 8.74381 6.80469 9.79404 6.80469C10.8443 6.80469 11.6925 7.56555 11.6925 8.50759C11.6925 9.44957 10.8443 10.2104 9.79404 10.2104C8.74381 10.2104 7.89551 9.44957 7.89551 8.50759Z" fill="#AD0000"/>
<path d="M15.4893 8.50759C15.4893 7.56555 16.3375 6.80469 17.3878 6.80469C18.438 6.80469 19.2863 7.56555 19.2863 8.50759C19.2863 9.44957 18.438 10.2104 17.3878 10.2104C16.3375 10.2104 15.4893 9.44957 15.4893 8.50759Z" fill="#AD0000"/>
<path d="M23.0752 8.50759C23.0752 7.56555 23.9235 6.80469 24.9737 6.80469C26.0239 6.80469 26.8722 7.56555 26.8722 8.50759C26.8722 9.44957 26.0239 10.2104 24.9737 10.2104C23.9235 10.2104 23.0752 9.44957 23.0752 8.50759Z" fill="#AD0000"/>
<path d="M53.4268 8.50759C53.4268 7.56555 54.275 6.80469 55.3253 6.80469C56.3755 6.80469 57.2238 7.56555 57.2238 8.50759C57.2238 9.44957 56.3755 10.2104 55.3253 10.2104C54.275 10.2104 53.4268 9.44957 53.4268 8.50759Z" fill="#AD0000"/>
<path d="M61.0215 8.50759C61.0215 7.56555 61.8698 6.80469 62.92 6.80469C63.9702 6.80469 64.8185 7.56555 64.8185 8.50759C64.8185 9.44957 63.9702 10.2104 62.92 10.2104C61.8698 10.2104 61.0215 9.44957 61.0215 8.50759Z" fill="#AD0000"/>
<path d="M68.6074 8.50759C68.6074 7.56555 69.4557 6.80469 70.5059 6.80469C71.5562 6.80469 72.4044 7.56555 72.4044 8.50759C72.4044 9.44957 71.5562 10.2104 70.5059 10.2104C69.4557 10.2104 68.6074 9.44957 68.6074 8.50759Z" fill="#AD0000"/>
<path d="M11.6924 11.9129C11.6924 10.9709 12.5406 10.21 13.5909 10.21C14.6411 10.21 15.4894 10.9709 15.4894 11.9129C15.4894 12.8549 14.6411 13.6158 13.5909 13.6158C12.5406 13.6158 11.6924 12.8549 11.6924 11.9129Z" fill="#AD0000"/>
<path d="M20.4455 13.4814C21.4134 13.8429 22.5249 13.4323 22.9279 12.564C23.331 11.6958 22.8731 10.6989 21.9052 10.3374C20.9373 9.97579 19.8258 10.3865 19.4228 11.2547C19.0197 12.1229 19.4775 13.1198 20.4455 13.4814Z" fill="#AD0000"/>
<path d="M28.0392 13.4902C29.0071 13.8517 30.1186 13.4411 30.5216 12.5728C30.9248 11.7046 30.4669 10.7077 29.499 10.3462C28.5311 9.98458 27.4196 10.3953 27.0165 11.2634C26.6134 12.1317 27.0713 13.1286 28.0392 13.4902Z" fill="#AD0000"/>
<path d="M49.6387 11.9129C49.6387 10.9709 50.4869 10.21 51.5372 10.21C52.5874 10.21 53.4357 10.9709 53.4357 11.9129C53.4357 12.8549 52.5874 13.6158 51.5372 13.6158C50.4869 13.6158 49.6387 12.8549 49.6387 11.9129Z" fill="#AD0000"/>
<path d="M58.3898 13.4814C59.3578 13.8429 60.4692 13.4323 60.8723 12.564C61.2754 11.6958 60.8175 10.6989 59.8496 10.3374C58.8817 9.97579 57.7702 10.3865 57.3671 11.2547C56.964 12.1229 57.4219 13.1198 58.3898 13.4814Z" fill="#AD0000"/>
<path d="M65.9836 13.4824C66.9515 13.844 68.0629 13.4332 68.466 12.565C68.8691 11.6969 68.4113 10.6999 67.4433 10.3384C66.4754 9.97676 65.364 10.3875 64.9609 11.2557C64.5577 12.1238 65.0156 13.1208 65.9836 13.4824Z" fill="#AD0000"/>
<path d="M15.4893 15.3191C15.4893 14.3771 16.3375 13.6162 17.3878 13.6162C18.438 13.6162 19.2863 14.3771 19.2863 15.3191C19.2863 16.2612 18.438 17.022 17.3878 17.022C16.3375 17.022 15.4893 16.2612 15.4893 15.3191Z" fill="#AD0000"/>
<path d="M23.0752 15.3191C23.0752 14.3771 23.9235 13.6162 24.9737 13.6162C26.0239 13.6162 26.8722 14.3771 26.8722 15.3191C26.8722 16.2612 26.0239 17.022 24.9737 17.022C23.9235 17.022 23.0752 16.2612 23.0752 15.3191Z" fill="#AD0000"/>
<path d="M30.6611 15.3191C30.6611 14.3771 31.5094 13.6162 32.5596 13.6162C33.6099 13.6162 34.4581 14.3771 34.4581 15.3191C34.4581 16.2612 33.6099 17.022 32.5596 17.022C31.5094 17.022 30.6611 16.2612 30.6611 15.3191Z" fill="#AD0000"/>
<path d="M45.8408 15.3191C45.8408 14.3771 46.6891 13.6162 47.7393 13.6162C48.7896 13.6162 49.6378 14.3771 49.6378 15.3191C49.6378 16.2612 48.7896 17.022 47.7393 17.022C46.6891 17.022 45.8408 16.2612 45.8408 15.3191Z" fill="#AD0000"/>
<path d="M53.4268 15.3191C53.4268 14.3771 54.275 13.6162 55.3253 13.6162C56.3755 13.6162 57.2238 14.3771 57.2238 15.3191C57.2238 16.2612 56.3755 17.022 55.3253 17.022C54.275 17.022 53.4268 16.2612 53.4268 15.3191Z" fill="#AD0000"/>
<path d="M61.0215 15.3191C61.0215 14.3771 61.8698 13.6162 62.92 13.6162C63.9702 13.6162 64.8185 14.3771 64.8185 15.3191C64.8185 16.2612 63.9702 17.022 62.92 17.022C61.8698 17.022 61.0215 16.2612 61.0215 15.3191Z" fill="#AD0000"/>
<path d="M19.2783 18.7175C19.2783 19.658 20.1284 20.4204 21.1768 20.4204C22.2254 20.4204 23.0753 19.658 23.0753 18.7175C23.0753 17.777 22.2254 17.0146 21.1768 17.0146C20.1284 17.0146 19.2783 17.777 19.2783 18.7175Z" fill="#AD0000"/>
<path d="M26.8643 18.7175C26.8643 19.658 27.7143 20.4204 28.7628 20.4204C29.8113 20.4204 30.6613 19.658 30.6613 18.7175C30.6613 17.777 29.8113 17.0146 28.7628 17.0146C27.7143 17.0146 26.8643 17.777 26.8643 18.7175Z" fill="#AD0000"/>
<path d="M34.458 18.7175C34.458 17.7755 35.3063 17.0146 36.3565 17.0146C37.4067 17.0146 38.255 17.7755 38.255 18.7175C38.255 19.6595 37.4067 20.4204 36.3565 20.4204C35.3063 20.4204 34.458 19.6595 34.458 18.7175Z" fill="#AD0000"/>
<path d="M42.0439 18.7175C42.0439 17.7755 42.8922 17.0146 43.9424 17.0146C44.9927 17.0146 45.8409 17.7755 45.8409 18.7175C45.8409 19.6595 44.9927 20.4204 43.9424 20.4204C42.8922 20.4204 42.0439 19.6595 42.0439 18.7175Z" fill="#AD0000"/>
<path d="M49.6387 18.7175C49.6387 17.7755 50.4869 17.0146 51.5372 17.0146C52.5874 17.0146 53.4357 17.7755 53.4357 18.7175C53.4357 19.6595 52.5874 20.4204 51.5372 20.4204C50.4869 20.4204 49.6387 19.6595 49.6387 18.7175Z" fill="#AD0000"/>
<path d="M57.2246 18.7175C57.2246 19.658 58.0746 20.4204 59.1231 20.4204C60.1716 20.4204 61.0216 19.658 61.0216 18.7175C61.0216 17.777 60.1716 17.0146 59.1231 17.0146C58.0746 17.0146 57.2246 17.777 57.2246 18.7175Z" fill="#AD0000"/>
<path d="M23.0752 22.1228C23.0752 21.1808 23.9235 20.4199 24.9737 20.4199C26.0239 20.4199 26.8722 21.1808 26.8722 22.1228C26.8722 23.0648 26.0239 23.8257 24.9737 23.8257C23.9235 23.8257 23.0752 23.0648 23.0752 22.1228Z" fill="#AD0000"/>
<path d="M30.6611 22.1228C30.6611 21.1808 31.5094 20.4199 32.5596 20.4199C33.6099 20.4199 34.4581 21.1808 34.4581 22.1228C34.4581 23.0648 33.6099 23.8257 32.5596 23.8257C31.5094 23.8257 30.6611 23.0648 30.6611 22.1228Z" fill="#AD0000"/>
<path d="M38.2559 22.1228C38.2559 21.1808 39.1041 20.4199 40.1544 20.4199C41.2046 20.4199 42.0529 21.1808 42.0529 22.1228C42.0529 23.0648 41.2046 23.8257 40.1544 23.8257C39.1041 23.8257 38.2559 23.0648 38.2559 22.1228Z" fill="#AD0000"/>
<path d="M45.8408 22.1228C45.8408 21.1808 46.6891 20.4199 47.7393 20.4199C48.7896 20.4199 49.6378 21.1808 49.6378 22.1228C49.6378 23.0648 48.7896 23.8257 47.7393 23.8257C46.6891 23.8257 45.8408 23.0648 45.8408 22.1228Z" fill="#AD0000"/>
<path d="M53.4268 22.1228C53.4268 21.1808 54.275 20.4199 55.3253 20.4199C56.3755 20.4199 57.2238 21.1808 57.2238 22.1228C57.2238 23.0648 56.3755 23.8257 55.3253 23.8257C54.275 23.8257 53.4268 23.0648 53.4268 22.1228Z" fill="#AD0000"/>
<path d="M28.0363 27.1015C29.0042 27.4631 30.1157 27.0524 30.5188 26.1842C30.9219 25.316 30.464 24.3191 29.4961 23.9575C28.5281 23.5959 27.4167 24.0067 27.0136 24.8748C26.6105 25.743 27.0684 26.7399 28.0363 27.1015Z" fill="#AD0000"/>
<path d="M34.458 25.5291C34.458 24.587 35.3063 23.8262 36.3565 23.8262C37.4067 23.8262 38.255 24.587 38.255 25.5291C38.255 26.4711 37.4067 27.2319 36.3565 27.2319C35.3063 27.2319 34.458 26.4711 34.458 25.5291Z" fill="#AD0000"/>
<path d="M42.0439 25.5291C42.0439 24.587 42.8922 23.8262 43.9424 23.8262C44.9927 23.8262 45.8409 24.587 45.8409 25.5291C45.8409 26.4711 44.9927 27.2319 43.9424 27.2319C42.8922 27.2319 42.0439 26.4711 42.0439 25.5291Z" fill="#AD0000"/>
<path d="M49.6387 25.5291C49.6387 24.587 50.4869 23.8262 51.5372 23.8262C52.5874 23.8262 53.4357 24.587 53.4357 25.5291C53.4357 26.4711 52.5874 27.2319 51.5372 27.2319C50.4869 27.2319 49.6387 26.4711 49.6387 25.5291Z" fill="#AD0000"/>
<path d="M30.6611 28.9275C30.6611 27.9855 31.5094 27.2246 32.5596 27.2246C33.6099 27.2246 34.4581 27.9855 34.4581 28.9275C34.4581 29.8695 33.6099 30.6304 32.5596 30.6304C31.5094 30.6304 30.6611 29.8695 30.6611 28.9275Z" fill="#AD0000"/>
<path d="M38.2559 28.9275C38.2559 27.9855 39.1041 27.2246 40.1544 27.2246C41.2046 27.2246 42.0529 27.9855 42.0529 28.9275C42.0529 29.8695 41.2046 30.6304 40.1544 30.6304C39.1041 30.6304 38.2559 29.8695 38.2559 28.9275Z" fill="#AD0000"/>
<path d="M45.8408 28.9275C45.8408 27.9855 46.6891 27.2246 47.7393 27.2246C48.7896 27.2246 49.6378 27.9855 49.6378 28.9275C49.6378 29.8695 48.7896 30.6304 47.7393 30.6304C46.6891 30.6304 45.8408 29.8695 45.8408 28.9275Z" fill="#AD0000"/>
<path d="M34.458 32.3328C34.458 31.3907 35.3063 30.6299 36.3565 30.6299C37.4067 30.6299 38.255 31.3907 38.255 32.3328C38.255 33.2748 37.4067 34.0356 36.3565 34.0356C35.3063 34.0356 34.458 33.2748 34.458 32.3328Z" fill="#AD0000"/>
<path d="M42.0439 32.3328C42.0439 31.3907 42.8922 30.6299 43.9424 30.6299C44.9927 30.6299 45.8409 31.3907 45.8409 32.3328C45.8409 33.2748 44.9927 34.0356 43.9424 34.0356C42.8922 34.0356 42.0439 33.2748 42.0439 32.3328Z" fill="#AD0000"/>
<path d="M38.2559 35.739C38.2559 34.7971 39.1041 34.0361 40.1544 34.0361C41.2046 34.0361 42.0529 34.7971 42.0529 35.739C42.0529 36.6811 41.2046 37.442 40.1544 37.442C39.1041 37.442 38.2559 36.6811 38.2559 35.739Z" fill="#AD0000"/>
</g>
</g>
</g>
<defs>
<clipPath id="clip0_223_215">
<rect width="80" height="37.97" fill="white"/>
</clipPath>
<clipPath id="clip1_223_215">
<rect width="80" height="37.97" fill="white"/>
</clipPath>
<clipPath id="clip2_223_215">
<rect width="79.9794" height="37.97" fill="white" transform="translate(0.0107422)"/>
</clipPath>
</defs>
</svg>
