<svg width="122" height="47" viewBox="0 0 122 47" fill="none" xmlns="http://www.w3.org/2000/svg">
<rect x="0.5" y="0.5" width="121" height="46" rx="23" fill="white" stroke="#F20505"/>
<path d="M44.8358 17.364V25.968C44.8358 27.3 44.4578 28.326 43.7018 29.046C42.9578 29.766 41.9498 30.126 40.6778 30.126C39.3458 30.126 38.2778 29.748 37.4738 28.992C36.6698 28.236 36.2678 27.162 36.2678 25.77H39.3278C39.3278 26.298 39.4358 26.7 39.6518 26.976C39.8678 27.24 40.1798 27.372 40.5878 27.372C40.9598 27.372 41.2478 27.252 41.4518 27.012C41.6558 26.772 41.7578 26.424 41.7578 25.968V17.364H44.8358ZM53.2981 30.126C52.1101 30.126 51.0181 29.85 50.0221 29.298C49.0381 28.746 48.2521 27.978 47.6641 26.994C47.0881 25.998 46.8001 24.882 46.8001 23.646C46.8001 22.41 47.0881 21.3 47.6641 20.316C48.2521 19.332 49.0381 18.564 50.0221 18.012C51.0181 17.46 52.1101 17.184 53.2981 17.184C54.4861 17.184 55.5721 17.46 56.5561 18.012C57.5521 18.564 58.3321 19.332 58.8961 20.316C59.4721 21.3 59.7601 22.41 59.7601 23.646C59.7601 24.882 59.4721 25.998 58.8961 26.994C58.3201 27.978 57.5401 28.746 56.5561 29.298C55.5721 29.85 54.4861 30.126 53.2981 30.126ZM53.2981 27.318C54.3061 27.318 55.1101 26.982 55.7101 26.31C56.3221 25.638 56.6281 24.75 56.6281 23.646C56.6281 22.53 56.3221 21.642 55.7101 20.982C55.1101 20.31 54.3061 19.974 53.2981 19.974C52.2781 19.974 51.4621 20.304 50.8501 20.964C50.2501 21.624 49.9501 22.518 49.9501 23.646C49.9501 24.762 50.2501 25.656 50.8501 26.328C51.4621 26.988 52.2781 27.318 53.2981 27.318ZM64.5504 17.364V30H61.4724V17.364H64.5504ZM78.085 30H75.007L69.859 22.206V30H66.781V17.364H69.859L75.007 25.194V17.364H78.085V30ZM87.2822 25.374L86.7962 19.218L86.7062 16.536H89.6942L89.6042 19.218L89.1182 25.374H87.2822ZM88.2002 30.162C87.7442 30.162 87.3662 30.012 87.0662 29.712C86.7662 29.412 86.6162 29.034 86.6162 28.578C86.6162 28.11 86.7662 27.726 87.0662 27.426C87.3662 27.126 87.7442 26.976 88.2002 26.976C88.6562 26.976 89.0342 27.126 89.3342 27.426C89.6342 27.726 89.7842 28.11 89.7842 28.578C89.7842 29.034 89.6342 29.412 89.3342 29.712C89.0342 30.012 88.6562 30.162 88.2002 30.162Z" fill="#F20505"/>
</svg>
