<svg width="64" height="42" viewBox="0 0 64 42" fill="none" xmlns="http://www.w3.org/2000/svg">
<path d="M13.35 41.6C10.9833 41.6 9.01667 41.1 7.45 40.1C5.91667 39.1 4.75 37.7167 3.95 35.95C3.18333 34.1833 2.8 32.15 2.8 29.85V11.9C2.8 9.53333 3.16667 7.46666 3.9 5.7C4.66667 3.9 5.81667 2.5 7.35 1.5C8.91667 0.499998 10.9167 -2.6226e-06 13.35 -2.6226e-06C15.7833 -2.6226e-06 17.7667 0.499998 19.3 1.5C20.8667 2.5 22.0167 3.9 22.75 5.7C23.5167 7.46666 23.9 9.53333 23.9 11.9V29.85C23.9 32.15 23.5 34.1833 22.7 35.95C21.9333 37.7167 20.7667 39.1 19.2 40.1C17.6667 41.1 15.7167 41.6 13.35 41.6ZM13.35 35.65C14.3833 35.65 15.15 35.3333 15.65 34.7C16.15 34.0667 16.4833 33.3 16.65 32.4C16.8167 31.5 16.9 30.6167 16.9 29.75V12C16.9 11.0667 16.8167 10.15 16.65 9.25C16.5167 8.31666 16.2 7.53333 15.7 6.9C15.2 6.26666 14.4167 5.95 13.35 5.95C12.2833 5.95 11.5 6.26666 11 6.9C10.5 7.53333 10.1667 8.31666 10 9.25C9.86667 10.15 9.8 11.0667 9.8 12V29.75C9.8 30.6167 9.88333 31.5 10.05 32.4C10.25 33.3 10.6 34.0667 11.1 34.7C11.6 35.3333 12.35 35.65 13.35 35.65ZM39.209 41.6C36.6757 41.6 34.6257 41.1333 33.059 40.2C31.5257 39.2333 30.409 37.8833 29.709 36.15C29.009 34.3833 28.659 32.3333 28.659 30V28.6H35.509C35.509 28.7 35.509 28.8667 35.509 29.1C35.509 29.3333 35.509 29.5667 35.509 29.8C35.5423 31.0667 35.659 32.15 35.859 33.05C36.059 33.95 36.4257 34.6333 36.959 35.1C37.5257 35.5667 38.2923 35.8 39.259 35.8C40.2923 35.8 41.059 35.55 41.559 35.05C42.0923 34.55 42.4423 33.8167 42.609 32.85C42.809 31.8833 42.909 30.7333 42.909 29.4C42.909 27.3333 42.5757 25.7167 41.909 24.55C41.2757 23.35 40.0257 22.7 38.159 22.6C38.0923 22.6 37.9257 22.6 37.659 22.6C37.4257 22.6 37.209 22.6 37.009 22.6V17.05C37.1757 17.05 37.3423 17.05 37.509 17.05C37.709 17.05 37.8923 17.05 38.059 17.05C39.8923 17.0167 41.159 16.5333 41.859 15.6C42.559 14.6333 42.909 13.1 42.909 11C42.909 9.3 42.6423 7.96667 42.109 7C41.609 6.03333 40.6257 5.55 39.159 5.55C37.7257 5.55 36.759 6.08333 36.259 7.15C35.7923 8.21666 35.5423 9.6 35.509 11.3C35.509 11.5333 35.509 11.7833 35.509 12.05C35.509 12.2833 35.509 12.5333 35.509 12.8H28.659V10.85C28.659 8.55 29.059 6.6 29.859 5C30.6923 3.36666 31.8923 2.13333 33.459 1.3C35.0257 0.433331 36.9257 -2.6226e-06 39.159 -2.6226e-06C41.459 -2.6226e-06 43.3923 0.416665 44.959 1.25C46.5257 2.08333 47.709 3.3 48.509 4.9C49.3423 6.46667 49.759 8.4 49.759 10.7C49.759 13.1 49.259 15.0667 48.259 16.6C47.259 18.1333 45.9757 19.1333 44.409 19.6C45.4757 19.9333 46.409 20.5167 47.209 21.35C48.009 22.15 48.6257 23.2167 49.059 24.55C49.5257 25.85 49.759 27.4333 49.759 29.3C49.759 31.7333 49.409 33.8833 48.709 35.75C48.0423 37.5833 46.9257 39.0167 45.359 40.05C43.8257 41.0833 41.7757 41.6 39.209 41.6Z" fill="#F20505"/>
<rect x="60" y="1" width="4" height="40" fill="#F20505"/>
</svg>
