<svg width="64" height="42" viewBox="0 0 64 42" fill="none" xmlns="http://www.w3.org/2000/svg">
<path d="M13.35 41.6C10.9833 41.6 9.01667 41.1 7.45 40.1C5.91667 39.1 4.75 37.7167 3.95 35.95C3.18333 34.1833 2.8 32.15 2.8 29.85V11.9C2.8 9.53333 3.16667 7.46666 3.9 5.7C4.66667 3.9 5.81667 2.5 7.35 1.5C8.91667 0.499998 10.9167 -2.6226e-06 13.35 -2.6226e-06C15.7833 -2.6226e-06 17.7667 0.499998 19.3 1.5C20.8667 2.5 22.0167 3.9 22.75 5.7C23.5167 7.46666 23.9 9.53333 23.9 11.9V29.85C23.9 32.15 23.5 34.1833 22.7 35.95C21.9333 37.7167 20.7667 39.1 19.2 40.1C17.6667 41.1 15.7167 41.6 13.35 41.6ZM13.35 35.65C14.3833 35.65 15.15 35.3333 15.65 34.7C16.15 34.0667 16.4833 33.3 16.65 32.4C16.8167 31.5 16.9 30.6167 16.9 29.75V12C16.9 11.0667 16.8167 10.15 16.65 9.25C16.5167 8.31666 16.2 7.53333 15.7 6.9C15.2 6.26666 14.4167 5.95 13.35 5.95C12.2833 5.95 11.5 6.26666 11 6.9C10.5 7.53333 10.1667 8.31666 10 9.25C9.86667 10.15 9.8 11.0667 9.8 12V29.75C9.8 30.6167 9.88333 31.5 10.05 32.4C10.25 33.3 10.6 34.0667 11.1 34.7C11.6 35.3333 12.35 35.65 13.35 35.65ZM40.409 41V31.05H28.309V25.15L38.859 0.499997H46.909V25.55H51.059V31.05H46.909V41H40.409ZM34.109 25.55H40.409V7.95L34.109 25.55Z" fill="#F20505"/>
<rect x="60" y="1" width="4" height="40" fill="#F20505"/>
</svg>
