<svg width="122" height="48" viewBox="0 0 122 48" fill="none" xmlns="http://www.w3.org/2000/svg">
<rect x="0.5" y="1" width="121" height="46" rx="23" fill="white" stroke="#F20505"/>
<path d="M44.0291 31.716C43.1171 31.716 42.3551 31.554 41.7431 31.23C41.1311 30.906 40.6691 30.408 40.3571 29.736C40.0451 29.052 39.8711 28.17 39.8351 27.09L42.5891 26.676C42.6011 27.3 42.6551 27.804 42.7511 28.188C42.8591 28.572 43.0031 28.848 43.1831 29.016C43.3751 29.184 43.6031 29.268 43.8671 29.268C44.2031 29.268 44.4191 29.154 44.5151 28.926C44.6231 28.698 44.6771 28.458 44.6771 28.206C44.6771 27.606 44.5331 27.102 44.2451 26.694C43.9571 26.274 43.5671 25.854 43.0751 25.434L41.8151 24.336C41.2631 23.868 40.7951 23.34 40.4111 22.752C40.0391 22.152 39.8531 21.414 39.8531 20.538C39.8531 19.302 40.2191 18.36 40.9511 17.712C41.6831 17.052 42.6791 16.722 43.9391 16.722C44.7191 16.722 45.3431 16.854 45.8111 17.118C46.2911 17.382 46.6511 17.73 46.8911 18.162C47.1431 18.582 47.3111 19.032 47.3951 19.512C47.4911 19.98 47.5451 20.43 47.5571 20.862L44.7851 21.204C44.7731 20.772 44.7431 20.4 44.6951 20.088C44.6591 19.764 44.5751 19.518 44.4431 19.35C44.3111 19.17 44.1071 19.08 43.8311 19.08C43.5311 19.08 43.3091 19.206 43.1651 19.458C43.0331 19.71 42.9671 19.962 42.9671 20.214C42.9671 20.754 43.0931 21.198 43.3451 21.546C43.6091 21.882 43.9511 22.236 44.3711 22.608L45.5771 23.67C46.2131 24.21 46.7471 24.822 47.1791 25.506C47.6231 26.19 47.8451 27.036 47.8451 28.044C47.8451 28.728 47.6891 29.352 47.3771 29.916C47.0651 30.468 46.6211 30.906 46.0451 31.23C45.4811 31.554 44.8091 31.716 44.0291 31.716ZM50.7192 31.5V19.314H48.5232V16.92H56.1372V19.314H53.9592V31.5H50.7192ZM57.4208 31.5V16.92H63.9728V19.116H60.6428V22.734H63.1808V24.966H60.6428V29.322H64.0088V31.5H57.4208ZM65.4716 31.5V16.92H70.3676C71.2436 16.92 71.9636 17.088 72.5276 17.424C73.0916 17.748 73.5116 18.228 73.7876 18.864C74.0636 19.488 74.2016 20.25 74.2016 21.15C74.2016 22.278 74.0156 23.142 73.6436 23.742C73.2716 24.33 72.7676 24.738 72.1316 24.966C71.4956 25.194 70.7816 25.308 69.9896 25.308H68.6936V31.5H65.4716ZM68.6936 23.058H69.7736C70.1696 23.058 70.4696 22.986 70.6736 22.842C70.8776 22.698 71.0096 22.482 71.0696 22.194C71.1416 21.906 71.1776 21.54 71.1776 21.096C71.1776 20.724 71.1476 20.4 71.0876 20.124C71.0396 19.836 70.9136 19.608 70.7096 19.44C70.5056 19.272 70.1876 19.188 69.7556 19.188H68.6936V23.058ZM79.3728 31.77C78.3528 31.77 77.5488 31.578 76.9608 31.194C76.3848 30.81 75.9708 30.276 75.7188 29.592C75.4788 28.896 75.3588 28.098 75.3588 27.198V26.676H78.3648C78.3648 26.688 78.3648 26.754 78.3648 26.874C78.3648 26.994 78.3648 27.102 78.3648 27.198C78.3648 27.678 78.3948 28.068 78.4548 28.368C78.5148 28.668 78.6228 28.89 78.7788 29.034C78.9348 29.166 79.1508 29.232 79.4268 29.232C79.7028 29.232 79.9068 29.16 80.0388 29.016C80.1828 28.872 80.2788 28.656 80.3268 28.368C80.3748 28.08 80.3988 27.72 80.3988 27.288C80.3988 26.568 80.2968 26.022 80.0928 25.65C79.9008 25.266 79.4928 25.068 78.8688 25.056C78.8568 25.056 78.7908 25.056 78.6708 25.056C78.5508 25.056 78.4308 25.056 78.3108 25.056V22.986C78.3948 22.986 78.4788 22.986 78.5628 22.986C78.6468 22.986 78.7248 22.986 78.7968 22.986C79.4328 22.986 79.8588 22.812 80.0748 22.464C80.2908 22.116 80.3988 21.576 80.3988 20.844C80.3988 20.28 80.3208 19.848 80.1648 19.548C80.0208 19.248 79.7448 19.098 79.3368 19.098C78.9408 19.098 78.6768 19.266 78.5448 19.602C78.4248 19.938 78.3648 20.37 78.3648 20.898C78.3648 21.018 78.3648 21.144 78.3648 21.276C78.3648 21.396 78.3648 21.522 78.3648 21.654H75.3588V20.772C75.3588 19.896 75.5148 19.158 75.8268 18.558C76.1508 17.946 76.6068 17.484 77.1948 17.172C77.7948 16.86 78.5088 16.704 79.3368 16.704C80.1768 16.704 80.8968 16.854 81.4968 17.154C82.0968 17.454 82.5588 17.898 82.8828 18.486C83.2068 19.062 83.3688 19.782 83.3688 20.646C83.3688 21.498 83.1948 22.212 82.8468 22.788C82.4988 23.364 82.0788 23.718 81.5868 23.85C81.9228 23.97 82.2228 24.162 82.4868 24.426C82.7628 24.69 82.9788 25.05 83.1348 25.506C83.2908 25.95 83.3688 26.52 83.3688 27.216C83.3688 28.104 83.2368 28.89 82.9728 29.574C82.7208 30.258 82.3008 30.798 81.7128 31.194C81.1248 31.578 80.3448 31.77 79.3728 31.77Z" fill="black"/>
</svg>
