<svg width="122" height="48" viewBox="0 0 122 48" fill="none" xmlns="http://www.w3.org/2000/svg">
<rect x="0.5" y="1" width="121" height="46" rx="23" fill="white" stroke="#F20505"/>
<path d="M45.1893 31.716C44.2773 31.716 43.5153 31.554 42.9033 31.23C42.2913 30.906 41.8293 30.408 41.5173 29.736C41.2053 29.052 41.0313 28.17 40.9953 27.09L43.7493 26.676C43.7613 27.3 43.8153 27.804 43.9113 28.188C44.0193 28.572 44.1633 28.848 44.3433 29.016C44.5353 29.184 44.7633 29.268 45.0273 29.268C45.3633 29.268 45.5793 29.154 45.6753 28.926C45.7833 28.698 45.8373 28.458 45.8373 28.206C45.8373 27.606 45.6933 27.102 45.4053 26.694C45.1173 26.274 44.7273 25.854 44.2353 25.434L42.9753 24.336C42.4233 23.868 41.9553 23.34 41.5713 22.752C41.1993 22.152 41.0133 21.414 41.0133 20.538C41.0133 19.302 41.3793 18.36 42.1113 17.712C42.8433 17.052 43.8393 16.722 45.0993 16.722C45.8793 16.722 46.5033 16.854 46.9713 17.118C47.4513 17.382 47.8113 17.73 48.0513 18.162C48.3033 18.582 48.4713 19.032 48.5553 19.512C48.6513 19.98 48.7053 20.43 48.7173 20.862L45.9453 21.204C45.9333 20.772 45.9033 20.4 45.8553 20.088C45.8193 19.764 45.7353 19.518 45.6033 19.35C45.4713 19.17 45.2673 19.08 44.9913 19.08C44.6913 19.08 44.4693 19.206 44.3253 19.458C44.1933 19.71 44.1273 19.962 44.1273 20.214C44.1273 20.754 44.2533 21.198 44.5053 21.546C44.7693 21.882 45.1113 22.236 45.5313 22.608L46.7373 23.67C47.3733 24.21 47.9073 24.822 48.3393 25.506C48.7833 26.19 49.0053 27.036 49.0053 28.044C49.0053 28.728 48.8493 29.352 48.5373 29.916C48.2253 30.468 47.7813 30.906 47.2053 31.23C46.6413 31.554 45.9693 31.716 45.1893 31.716ZM51.8794 31.5V19.314H49.6834V16.92H57.2974V19.314H55.1194V31.5H51.8794ZM58.581 31.5V16.92H65.133V19.116H61.803V22.734H64.341V24.966H61.803V29.322H65.169V31.5H58.581ZM66.6318 31.5V16.92H71.5278C72.4038 16.92 73.1238 17.088 73.6878 17.424C74.2518 17.748 74.6718 18.228 74.9478 18.864C75.2238 19.488 75.3618 20.25 75.3618 21.15C75.3618 22.278 75.1758 23.142 74.8038 23.742C74.4318 24.33 73.9278 24.738 73.2918 24.966C72.6558 25.194 71.9418 25.308 71.1498 25.308H69.8538V31.5H66.6318ZM69.8538 23.058H70.9338C71.3298 23.058 71.6298 22.986 71.8338 22.842C72.0378 22.698 72.1698 22.482 72.2298 22.194C72.3018 21.906 72.3378 21.54 72.3378 21.096C72.3378 20.724 72.3078 20.4 72.2478 20.124C72.1998 19.836 72.0738 19.608 71.8698 19.44C71.6658 19.272 71.3478 19.188 70.9158 19.188H69.8538V23.058ZM78.229 31.5V19.89C78.097 19.962 77.947 20.034 77.779 20.106C77.611 20.178 77.431 20.256 77.239 20.34C77.059 20.412 76.879 20.484 76.699 20.556C76.531 20.628 76.375 20.7 76.231 20.772V18.54C76.363 18.468 76.549 18.372 76.789 18.252C77.029 18.12 77.287 17.976 77.563 17.82C77.839 17.664 78.097 17.508 78.337 17.352C78.577 17.184 78.757 17.04 78.877 16.92H81.235V31.5H78.229Z" fill="black"/>
</svg>
