<svg width="122" height="48" viewBox="0 0 122 48" fill="none" xmlns="http://www.w3.org/2000/svg">
<rect x="0.5" y="1" width="121" height="46" rx="23" fill="white" stroke="#F20505"/>
<path d="M44.0291 31.716C43.1171 31.716 42.3551 31.554 41.7431 31.23C41.1311 30.906 40.6691 30.408 40.3571 29.736C40.0451 29.052 39.8711 28.17 39.8351 27.09L42.5891 26.676C42.6011 27.3 42.6551 27.804 42.7511 28.188C42.8591 28.572 43.0031 28.848 43.1831 29.016C43.3751 29.184 43.6031 29.268 43.8671 29.268C44.2031 29.268 44.4191 29.154 44.5151 28.926C44.6231 28.698 44.6771 28.458 44.6771 28.206C44.6771 27.606 44.5331 27.102 44.2451 26.694C43.9571 26.274 43.5671 25.854 43.0751 25.434L41.8151 24.336C41.2631 23.868 40.7951 23.34 40.4111 22.752C40.0391 22.152 39.8531 21.414 39.8531 20.538C39.8531 19.302 40.2191 18.36 40.9511 17.712C41.6831 17.052 42.6791 16.722 43.9391 16.722C44.7191 16.722 45.3431 16.854 45.8111 17.118C46.2911 17.382 46.6511 17.73 46.8911 18.162C47.1431 18.582 47.3111 19.032 47.3951 19.512C47.4911 19.98 47.5451 20.43 47.5571 20.862L44.7851 21.204C44.7731 20.772 44.7431 20.4 44.6951 20.088C44.6591 19.764 44.5751 19.518 44.4431 19.35C44.3111 19.17 44.1071 19.08 43.8311 19.08C43.5311 19.08 43.3091 19.206 43.1651 19.458C43.0331 19.71 42.9671 19.962 42.9671 20.214C42.9671 20.754 43.0931 21.198 43.3451 21.546C43.6091 21.882 43.9511 22.236 44.3711 22.608L45.5771 23.67C46.2131 24.21 46.7471 24.822 47.1791 25.506C47.6231 26.19 47.8451 27.036 47.8451 28.044C47.8451 28.728 47.6891 29.352 47.3771 29.916C47.0651 30.468 46.6211 30.906 46.0451 31.23C45.4811 31.554 44.8091 31.716 44.0291 31.716ZM50.7192 31.5V19.314H48.5232V16.92H56.1372V19.314H53.9592V31.5H50.7192ZM57.4208 31.5V16.92H63.9728V19.116H60.6428V22.734H63.1808V24.966H60.6428V29.322H64.0088V31.5H57.4208ZM65.4716 31.5V16.92H70.3676C71.2436 16.92 71.9636 17.088 72.5276 17.424C73.0916 17.748 73.5116 18.228 73.7876 18.864C74.0636 19.488 74.2016 20.25 74.2016 21.15C74.2016 22.278 74.0156 23.142 73.6436 23.742C73.2716 24.33 72.7676 24.738 72.1316 24.966C71.4956 25.194 70.7816 25.308 69.9896 25.308H68.6936V31.5H65.4716ZM68.6936 23.058H69.7736C70.1696 23.058 70.4696 22.986 70.6736 22.842C70.8776 22.698 71.0096 22.482 71.0696 22.194C71.1416 21.906 71.1776 21.54 71.1776 21.096C71.1776 20.724 71.1476 20.4 71.0876 20.124C71.0396 19.836 70.9136 19.608 70.7096 19.44C70.5056 19.272 70.1876 19.188 69.7556 19.188H68.6936V23.058ZM75.4128 31.5V29.376L78.9048 24.012C79.1688 23.616 79.4148 23.232 79.6428 22.86C79.8828 22.488 80.0748 22.11 80.2188 21.726C80.3748 21.342 80.4528 20.94 80.4528 20.52C80.4528 20.1 80.3688 19.788 80.2008 19.584C80.0328 19.38 79.8048 19.278 79.5168 19.278C79.1928 19.278 78.9408 19.368 78.7608 19.548C78.5808 19.728 78.4548 19.968 78.3828 20.268C78.3228 20.568 78.2928 20.904 78.2928 21.276V21.996H75.3768V21.222C75.3768 20.358 75.5148 19.59 75.7908 18.918C76.0668 18.234 76.5048 17.7 77.1048 17.316C77.7048 16.92 78.4908 16.722 79.4628 16.722C80.7708 16.722 81.7548 17.064 82.4148 17.748C83.0868 18.42 83.4228 19.362 83.4228 20.574C83.4228 21.162 83.3268 21.708 83.1348 22.212C82.9548 22.716 82.7088 23.208 82.3968 23.688C82.0968 24.156 81.7728 24.648 81.4248 25.164L78.7608 29.142H83.0268V31.5H75.4128Z" fill="black"/>
</svg>
